<svg width="152" height="1148" viewBox="0 0 152 1148" fill="none" xmlns="http://www.w3.org/2000/svg">
<g clip-path="url(#clip0_216_3156)">
<g filter="url(#filter0_d_216_3156)">
<path fill-rule="evenodd" clip-rule="evenodd" d="M1.00016 879.345C0.333382 883.777 0 888.438 0 893.328C0 897.979 0.333389 902.448 1.00016 906.736V879.345ZM75.5345 1021.23V992.054H148.772V1021.23H75.5345ZM1.00016 1090.33C0.746994 1092.96 0.620415 1095.7 0.620415 1098.55C0.620415 1101.32 0.746994 1103.99 1.00016 1106.57V1090.33ZM75.5345 1128.59V1060.05C78.2437 1055.97 81.7578 1052.39 86.0768 1049.3C91.8704 1045.17 99.4574 1043.1 108.838 1043.1C116.287 1043.1 123.184 1044.96 129.529 1048.68C135.737 1052.41 140.772 1057.93 144.634 1065.24C148.358 1072.55 150.221 1081.45 150.221 1091.93C150.221 1102.28 148.496 1111.52 145.048 1119.66C141.461 1127.79 136.357 1134.35 129.736 1139.31C123.115 1144.14 115.39 1146.9 106.561 1147.59V1116.55C112.493 1115.86 117.459 1113.52 121.459 1109.52C125.322 1105.38 127.253 1099.93 127.253 1093.17C127.253 1087.1 125.667 1082.48 122.494 1079.31C119.183 1076 114.976 1074.34 109.872 1074.34C105.32 1074.34 101.595 1075.65 98.6987 1078.27C95.6639 1080.89 93.2499 1084.2 91.4566 1088.2C89.6633 1092.21 87.5942 1097.72 85.2491 1104.76C82.2143 1113.86 79.2485 1121.31 76.3517 1127.1C76.0891 1127.61 75.8167 1128.1 75.5345 1128.59ZM75.5345 965.537V935.947C90.3453 935.765 101.929 931.698 110.286 923.745C118.839 915.468 123.115 904.226 123.115 890.018C123.115 879.534 120.011 870.567 113.804 863.118C107.596 855.532 98.9749 850.634 87.9394 848.427L87.9394 897.88H75.5345V824.011H95.1815C104.838 826.08 113.735 830.15 121.874 836.219C130.012 842.151 136.565 850.014 141.531 859.808C146.359 869.464 148.773 880.568 148.773 893.121C148.773 907.467 145.669 920.158 139.462 931.194C133.116 942.091 124.357 950.575 113.183 956.645C102.144 962.433 89.5948 965.397 75.5345 965.537ZM75.5345 798.29H151.522V769.115H75.5345V798.29ZM75.5345 753.755L151.522 703.729V674.554H75.5345V703.729H105.587L75.5345 723.35V753.755ZM75.5345 613.048H88.3528C108.631 613.048 124.011 607.806 134.495 597.322C144.979 586.839 150.221 572.837 150.221 555.318C150.221 544.007 147.945 533.937 143.392 525.109C138.84 516.142 131.943 509.176 122.701 504.21C113.321 499.106 101.871 496.554 88.3528 496.554H75.5345V525.522H88.3528C99.8022 525.522 108.424 528.074 114.217 533.178C119.873 538.144 122.701 545.317 122.701 554.698C122.701 564.216 119.873 571.527 114.217 576.631C108.424 581.597 99.8022 584.08 88.3528 584.08H75.5345V613.048ZM75.5345 470.875L148.772 470.875V441.699H94.5603L94.5603 417.697C94.5603 401.006 90.422 388.177 82.1453 379.211C80.1123 376.974 77.9087 375.013 75.5345 373.326V470.875Z" fill="#637A30"/>
<path fill-rule="evenodd" clip-rule="evenodd" d="M75.598 372.505C68.3778 367.502 59.6036 365 49.2751 365C35.0669 365 23.824 369.414 15.5473 378.243C7.27069 386.933 3.13241 399.9 3.13241 417.143L3.13241 470.32H75.598V372.505ZM75.598 495.899H3.13241L3.13242 524.867H75.598V495.899ZM75.598 583.424H3.13242L3.13242 612.393H75.598V583.424ZM75.598 674.554H4.58115L4.58115 703.729H75.598V674.554ZM75.598 722.749L4.58115 769.115L4.58115 798.29H75.598V769.115H51.3449L75.598 753.148V722.749ZM150.132 704.08V674.554H150.665V703.729L150.132 704.08ZM150.132 769.115V798.29H150.665V769.115H150.132ZM75.598 991.979V1021.15H3.13244L3.13244 991.979H75.598ZM75.598 823.023H67.4803V896.893H75.598V823.023ZM75.598 934.962V964.552C75.3755 964.553 75.1526 964.554 74.9293 964.554C60.4452 964.554 47.6164 961.588 36.4429 955.657C25.1315 949.587 16.303 941.104 9.9576 930.206C3.61217 919.308 0.439453 906.687 0.439453 892.34C0.439453 874.546 4.85366 859.786 13.6821 848.06C22.3726 836.335 34.1668 828.817 49.0648 825.506L49.0648 856.13C42.4435 859.027 37.2016 863.648 33.3391 869.993C29.3388 876.201 27.3386 883.581 27.3386 892.133C27.3386 900.548 29.2698 907.997 33.1322 914.48C36.9947 920.964 42.5124 925.999 49.6855 929.585C56.8586 933.172 65.2732 934.965 74.9293 934.965C75.1529 934.965 75.3758 934.964 75.598 934.962ZM75.598 1060.19V1128.78C72.6557 1133.67 68.7096 1137.93 63.7593 1141.55C58.1036 1145.55 50.7236 1147.55 41.6193 1147.55C29.0663 1147.55 19.2029 1143.07 12.0298 1134.1C4.71874 1125 1.06327 1113 1.06327 1098.1C1.06327 1082.65 4.78771 1070.37 12.2367 1061.27C19.6857 1052.03 29.6181 1046.78 42.0331 1045.54V1076.99C36.7912 1077.82 32.5147 1080.03 29.204 1083.62C25.7554 1087.2 24.0311 1092.1 24.0311 1098.31C24.0311 1103.69 25.4795 1108.03 28.3763 1111.34C31.1352 1114.65 35.2048 1116.31 40.5846 1116.31C44.8609 1116.31 48.4475 1115.07 51.3443 1112.58C54.1032 1109.96 56.3793 1106.72 58.1726 1102.86C59.9658 1098.86 61.966 1093.48 64.1731 1086.72C67.4838 1077.34 70.5871 1069.75 73.484 1063.96C74.119 1062.66 74.8237 1061.4 75.598 1060.19ZM150.132 1101.09V1082.22C150.487 1085.16 150.665 1088.24 150.665 1091.48C150.665 1094.8 150.487 1098 150.132 1101.09ZM150.132 563.976V545.478C150.487 548.443 150.665 551.504 150.665 554.663C150.665 557.887 150.487 560.991 150.132 563.976ZM49.2751 394.589C64.1731 394.589 71.6217 403.142 71.6217 420.247V441.145H26.721L26.721 420.247C26.721 411.142 28.6525 404.59 32.5149 400.59C36.3773 396.589 41.9641 394.589 49.2751 394.589Z" fill="white"/>
</g>
</g>
<defs>
<filter id="filter0_d_216_3156" x="-30" y="335" width="211.522" height="842.59" filterUnits="userSpaceOnUse" color-interpolation-filters="sRGB">
<feFlood flood-opacity="0" result="BackgroundImageFix"/>
<feColorMatrix in="SourceAlpha" type="matrix" values="0 0 0 0 0 0 0 0 0 0 0 0 0 0 0 0 0 0 127 0" result="hardAlpha"/>
<feOffset/>
<feGaussianBlur stdDeviation="15"/>
<feComposite in2="hardAlpha" operator="out"/>
<feColorMatrix type="matrix" values="0 0 0 0 0.388235 0 0 0 0 0.478431 0 0 0 0 0.188235 0 0 0 0.4 0"/>
<feBlend mode="normal" in2="BackgroundImageFix" result="effect1_dropShadow_216_3156"/>
<feBlend mode="normal" in="SourceGraphic" in2="effect1_dropShadow_216_3156" result="shape"/>
</filter>
<clipPath id="clip0_216_3156">
<rect width="151.522" height="1147.59" fill="white"/>
</clipPath>
</defs>
</svg>
